<?xml version="1.0" encoding="iso-8859-1"?>
<!-- Generator: Adobe Illustrator 19.0.0, SVG Export Plug-In . SVG Version: 6.00 Build 0)  -->
<svg version="1.1" id="Layer_1" xmlns="http://www.w3.org/2000/svg" xmlns:xlink="http://www.w3.org/1999/xlink" x="0px" y="0px"
	 viewBox="0 0 512 512" style="enable-background:new 0 0 512 512;" xml:space="preserve">
<circle style="fill:#AFE0EF;" cx="250.494" cy="256" r="168.331"/>
<path style="fill:#A2D5E0;" d="M179.864,256c0-75.979,50.341-140.19,119.485-161.127c-15.461-4.681-31.86-7.209-48.85-7.209
	C157.53,87.664,82.164,163.031,82.164,256s75.366,168.335,168.335,168.335c16.99,0,33.388-2.527,48.85-7.209
	C230.205,396.19,179.864,331.978,179.864,256z"/>
<path style="fill:#CFFFB0;" d="M418.839,255.999c0,58.824-30.176,110.601-75.889,140.694c-27.381-40.1-46.685-88.005-46.685-108.091
	c0-35.529,69.281-31.976,69.281-49.74s-53.294-21.507-53.294-49.729c0-28.234,68.274-40.053,68.274-40.053
	C404.461,178.155,418.839,215.402,418.839,255.999z"/>
<path style="fill:#FFFFFF;" d="M314.396,411.78c-19.706,8.089-41.272,12.554-63.892,12.554c-26.717,0-51.979-6.229-74.421-17.303
	c14.638-9.32,38.739-15.395,66-15.395C273.739,391.636,301.131,399.831,314.396,411.78z"/>
<path style="fill:#BFEDA2;" d="M216.336,178.475c-15.988,40.846-83.492,7.106-83.492,46.175c0,39.081,37.305,55.07,28.423,95.927
	c-8.882,40.859-41.995,40.859-41.995,40.859c-23.212-28.849-37.104-65.527-37.104-105.437c0-64.828,36.642-121.093,90.35-149.221
	l0.012,0.012C172.529,106.79,232.325,137.617,216.336,178.475z"/>
<circle style="fill:#F26464;" cx="432.3" cy="84.627" r="36.415"/>
<path style="fill:#DD5757;" d="M428.407,104.094c-10.754-16.994-5.696-39.49,11.298-50.244c1.947-1.232,3.967-2.246,6.032-3.069
	c-10.456-4.142-22.677-3.406-32.908,3.069c-16.994,10.754-22.053,33.25-11.298,50.244c9.522,15.049,28.248,20.728,44.211,14.367
	C438.831,115.724,432.687,110.858,428.407,104.094z"/>
<path d="M74.561,256c0,97.013,78.926,175.939,175.939,175.939S426.438,353.013,426.438,256S347.512,80.061,250.499,80.061
	c-40.069,0-77.815,13.122-109.158,37.949c-3.292,2.608-3.847,7.39-1.239,10.682c2.607,3.292,7.39,3.847,10.682,1.239
	c6.886-5.455,14.114-10.284,21.626-14.483c11.541,6.831,48.181,31.27,36.84,60.253c-5.851,14.951-20.209,17.215-41.448,18.964
	c-10.089,0.83-19.617,1.615-27.366,5.137c-10.084,4.583-15.198,12.945-15.198,24.855c0,19.898,8.716,34.542,16.406,47.462
	c8.793,14.774,16.388,27.533,12.19,46.845c-5.873,27.015-23.514,33.095-31.078,34.465c-20.681-27.051-32.987-60.826-32.987-97.429
	c0-40.162,14.892-78.611,41.929-108.264c2.83-3.103,2.608-7.912-0.496-10.742c-3.102-2.829-7.912-2.609-10.742,0.496
	C90.862,169.95,74.561,212.038,74.561,256z M194.492,406.657c13.245-4.732,29.993-7.417,47.592-7.417
	c21.259,0,41.304,3.955,55.227,10.531c-14.818,4.52-30.533,6.96-46.81,6.96C230.81,416.731,211.94,413.165,194.492,406.657z
	 M168.694,322.194c5.472-25.169-4.863-42.533-13.982-57.854c-7.336-12.327-14.266-23.97-14.266-39.684
	c0-10.926,6.095-12.981,28.604-14.835c19.878-1.636,44.616-3.674,54.362-28.58c7.73-19.752,1.629-40.271-17.639-59.339
	c-5.893-5.831-12.132-10.645-17.371-14.261c19.435-8.159,40.392-12.373,62.098-12.373c45.346,0,86.361,18.882,115.61,49.188
	c-6.365,1.599-14.36,3.892-22.422,6.954c-25.905,9.842-39.041,22.533-39.041,37.723c0,20.477,19.677,30.126,35.487,37.878
	c6.473,3.174,17.188,8.428,17.78,11.583c-2.003,2.66-13.504,6.24-20.444,8.402c-20.6,6.414-48.811,15.197-48.811,41.606
	c0,10.244,4.24,26.335,11.939,45.311c1.199,2.955,4.044,4.747,7.048,4.747c0.952,0,1.92-0.179,2.856-0.56
	c3.891-1.579,5.766-6.013,4.187-9.905c-6.878-16.954-10.823-31.385-10.823-39.594c0-14.095,16.523-20.36,38.124-27.085
	c16.023-4.988,31.157-9.701,31.157-22.656c0-12.599-13.379-19.16-26.318-25.505c-15.795-7.745-26.975-14.017-26.975-24.224
	c0-4.614,3.775-13.795,29.053-23.437c11.139-4.249,22.449-6.955,28.478-8.241c21.199,27.234,33.843,61.439,33.843,98.544
	c0,53.353-26.137,100.71-66.273,129.961c-7.04-10.87-13.796-22.679-19.741-34.572c-1.878-3.756-6.446-5.279-10.201-3.402
	c-3.756,1.878-5.279,6.445-3.401,10.201c6.21,12.424,13.277,24.771,20.646,36.14c-5.373,3.188-10.946,6.073-16.696,8.629
	c-15.993-11.758-43.481-18.926-73.479-18.926c-25.886,0-49.666,5.181-66.192,14.297c-15.823-8.328-30.097-19.214-42.266-32.11
	C147.137,361.198,162.943,348.645,168.694,322.194z"/>
<path d="M489.995,214.559c-4.16,0.581-7.06,4.423-6.479,8.582c1.51,10.808,2.275,21.863,2.275,32.858
	c0,4.199,3.405,7.604,7.604,7.604S501,260.199,501,256c0-11.697-0.815-23.46-2.422-34.962
	C497.997,216.879,494.153,213.977,489.995,214.559z"/>
<path d="M492.22,281.245c-4.168-0.564-7.991,2.357-8.553,6.519c-2.898,21.476-8.753,42.417-17.403,62.243
	c-1.68,3.85,0.079,8.331,3.929,10.011c0.991,0.432,2.022,0.637,3.038,0.637c2.932,0,5.725-1.706,6.973-4.564
	c9.214-21.117,15.45-43.421,18.535-66.291C499.299,285.635,496.382,281.805,492.22,281.245z"/>
<path d="M461.007,377.501c-3.57-2.215-8.256-1.119-10.471,2.448c-29.877,48.112-75.971,83.867-129.789,100.679
	c-4.009,1.252-6.243,5.516-4.99,9.525c1.016,3.254,4.017,5.339,7.255,5.339c0.751,0,1.516-0.113,2.27-0.348
	c57.301-17.9,106.372-55.961,138.175-107.173C465.671,384.405,464.575,379.717,461.007,377.501z"/>
<path d="M286.487,488.559c-11.824,1.814-23.931,2.733-35.988,2.733c-62.849,0-121.936-24.475-166.376-68.916
	C39.682,377.935,15.208,318.849,15.208,256c0-78.287,38.782-151.226,103.743-195.112c3.48-2.351,4.395-7.078,2.044-10.558
	c-2.351-3.479-7.077-4.393-10.558-2.044C41.285,95.004,0,172.654,0,256c0,66.911,26.056,129.817,73.37,177.13
	c47.313,47.314,110.219,73.37,177.129,73.37c12.826,0,25.71-0.979,38.294-2.91c4.151-0.637,7-4.518,6.363-8.67
	C294.52,490.771,290.643,487.924,286.487,488.559z"/>
<path d="M158.063,39.558c29.248-12.508,60.347-18.85,92.437-18.85c38.036,0,75.815,9.284,109.252,26.847
	c1.128,0.593,2.338,0.874,3.529,0.874c2.735,0,5.379-1.48,6.738-4.07c1.953-3.718,0.522-8.316-3.196-10.267
	C331.214,15.387,290.99,5.5,250.499,5.5c-34.156,0-67.269,6.754-98.416,20.074c-3.861,1.652-5.652,6.121-4.002,9.981
	C149.734,39.418,154.201,41.208,158.063,39.558z"/>
<path d="M510.82,126.379L469.5,61.083c-12.978-20.509-40.225-26.638-60.735-13.658c-20.51,12.979-26.637,40.225-13.658,60.735
	l41.32,65.296c1.447,2.286,3.912,3.538,6.433,3.538c1.39,0,2.797-0.381,4.058-1.18c3.548-2.246,4.605-6.943,2.359-10.491
	l-23.552-37.218c2.197,0.334,4.418,0.523,6.649,0.523c5.623,0,11.284-1.101,16.676-3.322l37.62,59.449
	c1.447,2.286,3.912,3.538,6.433,3.538c1.39,0,2.797-0.381,4.058-1.18c3.549-2.246,4.605-6.943,2.359-10.491l-37.609-59.43
	c5.902-5.342,10.215-12.16,12.526-19.866l23.532,37.185c1.447,2.286,3.913,3.538,6.433,3.538c1.39,0,2.797-0.381,4.058-1.18
	C512.01,134.624,513.067,129.928,510.82,126.379z M407.957,100.028c-8.495-13.425-4.484-31.257,8.94-39.752
	c4.769-3.018,10.094-4.457,15.36-4.457c9.556,0,18.915,4.742,24.391,13.396c8.495,13.426,4.485,31.258-8.939,39.752
	C434.285,117.464,416.453,113.453,407.957,100.028z"/>
<g>
</g>
<g>
</g>
<g>
</g>
<g>
</g>
<g>
</g>
<g>
</g>
<g>
</g>
<g>
</g>
<g>
</g>
<g>
</g>
<g>
</g>
<g>
</g>
<g>
</g>
<g>
</g>
<g>
</g>
</svg>
